<?xml version="1.0" encoding="UTF-8"?>
<svg width="223px" height="48px" viewBox="0 0 223 48" version="1.1" xmlns="http://www.w3.org/2000/svg" xmlns:xlink="http://www.w3.org/1999/xlink">
    <title>Logo / Full Light</title>
    <defs>
        <circle id="path-1" cx="24" cy="24" r="24"></circle>
        <linearGradient x1="130.906268%" y1="-2.92380503%" x2="14.4898883%" y2="69.5404331%" id="linearGradient-3">
            <stop stop-color="#EC4C3E" offset="0%"></stop>
            <stop stop-color="#F2C13C" offset="100%"></stop>
        </linearGradient>
        <circle id="path-4" cx="24" cy="24" r="24"></circle>
    </defs>
    <g id="Logo-/-Full-Light" stroke="none" stroke-width="1" fill="none" fill-rule="evenodd">
        <g id="Group">
            <mask id="mask-2" fill="white">
                <use xlink:href="#path-1"></use>
            </mask>
            <circle stroke="#3D3D3D" stroke-width="3" cx="24" cy="24" r="22.5"></circle>
            <path d="M48.4592462,-1.7917503 C50.4445974,-2.4756237 52.6082189,-1.41995027 53.2918301,0.566162297 C53.9754414,2.55227487 52.9201726,4.71672615 50.9348214,5.40059955 C49.7378261,5.81291615 48.4760287,5.59289904 47.5128613,4.91787391 L37.156,12.726 L37.2133436,12.8793613 C37.8749029,14.8014057 36.9079585,16.8904687 35.0455351,17.643051 L34.8563349,17.7137986 C34.3109532,17.9016606 33.752119,17.9582534 33.2142075,17.9003496 L26.445825,31.1949126 C26.6320167,31.4685454 26.7853045,31.7712073 26.8982162,32.0992524 C27.5818274,34.085365 26.5265587,36.2498163 24.5412075,36.9336897 C22.5558563,37.6175631 20.3922348,36.5618896 19.7086235,34.5757771 C19.4503865,33.8255146 19.4402846,33.0498034 19.6347198,32.3380674 L11.4871501,27.0435291 C11.0893529,27.4454319 10.5954759,27.7643881 10.0247346,27.9609855 C9.39758432,28.1770135 8.75264525,28.2194594 8.14218834,28.1138275 L0.193589004,39.473905 C0.271561861,39.6280613 0.339953965,39.7893604 0.397762533,39.957313 C1.08137377,41.9434256 0.026105035,44.1078769 -1.95924616,44.7917503 C-3.94459735,45.4756237 -6.10821889,44.4199503 -6.79183013,42.4338377 C-7.47544137,40.4477251 -6.42017263,38.2832738 -4.43482144,37.5994004 C-3.4826821,37.2714269 -2.48954073,37.3435476 -1.63831156,37.7265154 L5.94406268,26.8916906 C5.61986271,26.5269689 5.36090944,26.0933722 5.19215058,25.6030729 C4.50853934,23.6169603 5.56380807,21.452509 7.54915927,20.7686356 C9.53451046,20.0847622 11.698132,21.1404357 12.3817432,23.1265482 C12.5685433,23.6692631 12.6255043,24.2252941 12.5691286,24.7607938 L21.0498829,30.273013 C21.35201,30.0508073 21.6923846,29.8699086 22.0656322,29.7413398 C22.8501662,29.4710995 23.6625375,29.4724937 24.4004212,29.6955961 L30.9518221,16.829681 C30.5449083,16.4298804 30.2220578,15.9320316 30.023751,15.355886 C29.3401397,13.3697734 30.3954085,11.2053221 32.3807597,10.5214487 C33.4640666,10.1482932 34.6004508,10.2930598 35.5205101,10.8243022 L46.0517019,2.88499568 C45.4750103,0.943288591 46.5263244,-1.12593674 48.4592462,-1.7917503 Z" id="Trend-Line" fill="url(#linearGradient-3)" mask="url(#mask-2)"></path>
            <mask id="mask-5" fill="white">
                <use xlink:href="#path-4"></use>
            </mask>
            <circle stroke="#3D3D3D" stroke-width="3" cx="24" cy="24" r="22.5"></circle>
        </g>
        <path d="M66.8751406,35.6123596 C68.0506187,35.6123596 69.1299213,35.3647004 70.1130484,34.869382 C71.0961755,34.3740637 71.8709224,33.6795412 72.4372891,32.7858146 C73.0036558,31.892088 73.2868391,30.863764 73.2868391,29.7008427 C73.2868391,26.6427903 71.8869516,24.7907303 69.0871766,24.1446629 L69.0871766,24.1446629 L69.0871766,24.0154494 C71.5449944,23.3047753 72.7739033,21.5819288 72.7739033,18.8469101 C72.7739033,17.8132022 72.5014061,16.8764045 71.9564117,16.0365169 C71.4114173,15.1966292 70.674072,14.5451779 69.7443757,14.0821629 C68.8146794,13.6191479 67.7941507,13.3876404 66.6827897,13.3876404 L66.6827897,13.3876404 L52,13.3876404 L52,35.6123596 L66.8751406,35.6123596 Z M63.9578178,22.0449438 L59.0849269,22.0449438 L59.0849269,18.2654494 L63.9578178,18.2654494 C64.4066367,18.2654494 64.7913386,18.4323502 65.1119235,18.7661517 C65.4325084,19.0999532 65.5928009,19.5037453 65.5928009,19.9775281 L65.5928009,19.9775281 L65.5928009,20.3005618 C65.5928009,20.7958801 65.4378515,21.2104401 65.1279528,21.5442416 C64.818054,21.8780431 64.428009,22.0449438 63.9578178,22.0449438 L63.9578178,22.0449438 Z M64.4707537,30.4438202 L59.0849269,30.4438202 L59.0849269,26.6320225 L64.4707537,26.6320225 C64.9409449,26.6320225 65.3309899,26.7989232 65.6408886,27.1327247 C65.9507874,27.4665262 66.1057368,27.8810861 66.1057368,28.3764045 L66.1057368,28.3764045 L66.1057368,28.6994382 C66.1057368,29.1947566 65.9507874,29.6093165 65.6408886,29.943118 C65.3309899,30.2769195 64.9409449,30.4438202 64.4707537,30.4438202 L64.4707537,30.4438202 Z M82.1349831,35.6123596 L83.0646794,32.4789326 L90.7907762,32.4789326 L91.7204724,35.6123596 L99.2221597,35.6123596 L91.1754781,13.3876404 L82.9364454,13.3876404 L74.8897638,35.6123596 L82.1349831,35.6123596 Z M89.3160855,27.5042135 L84.5393701,27.5042135 L86.87964,19.5898876 L87.007874,19.5898876 L89.3160855,27.5042135 Z M111.949381,36 C115.197975,36 117.826772,35.1385768 119.835771,33.4157303 L119.835771,33.4157303 L120.541057,35.6123596 L124.195726,35.6123596 L124.195726,23.2078652 L112.430259,23.2078652 L112.430259,27.7303371 L117.431384,27.7303371 C117.431384,28.5917603 117.025309,29.2970506 116.213161,29.8462079 C115.401012,30.3953652 114.417885,30.6699438 113.26378,30.6699438 C111.596738,30.6699438 110.335771,30.2230805 109.480877,29.3293539 C108.625984,28.4356273 108.198538,27.170412 108.198538,25.5337079 L108.198538,25.5337079 L108.198538,23.4662921 C108.198538,21.829588 108.625984,20.5643727 109.480877,19.6706461 C110.335771,18.7769195 111.596738,18.3300562 113.26378,18.3300562 C114.417885,18.3300562 115.401012,18.6154026 116.213161,19.1860955 C117.025309,19.7567884 117.431384,20.5051498 117.431384,21.4311798 L117.431384,21.4311798 L124.195726,21.4311798 C124.195726,19.622191 123.698819,18.0877809 122.705006,16.8279494 C121.711192,15.568118 120.370079,14.6151685 118.681665,13.9691011 C116.993251,13.3230337 115.091114,13 112.975253,13 C109.128234,13 106.162823,13.974485 104.079021,15.9234551 C101.995219,17.8724251 100.953318,20.7312734 100.953318,24.5 C100.953318,28.3117978 101.872328,31.1814139 103.710349,33.1088483 C105.548369,35.0362828 108.294713,36 111.949381,36 Z M138.654106,36 C141.9027,36 144.531496,35.1385768 146.540495,33.4157303 L146.540495,33.4157303 L147.245782,35.6123596 L150.90045,35.6123596 L150.90045,23.2078652 L139.134983,23.2078652 L139.134983,27.7303371 L144.136108,27.7303371 C144.136108,28.5917603 143.730034,29.2970506 142.917885,29.8462079 C142.105737,30.3953652 141.12261,30.6699438 139.968504,30.6699438 C138.301462,30.6699438 137.040495,30.2230805 136.185602,29.3293539 C135.330709,28.4356273 134.903262,27.170412 134.903262,25.5337079 L134.903262,25.5337079 L134.903262,23.4662921 C134.903262,21.829588 135.330709,20.5643727 136.185602,19.6706461 C137.040495,18.7769195 138.301462,18.3300562 139.968504,18.3300562 C141.12261,18.3300562 142.105737,18.6154026 142.917885,19.1860955 C143.730034,19.7567884 144.136108,20.5051498 144.136108,21.4311798 L144.136108,21.4311798 L150.90045,21.4311798 C150.90045,19.622191 150.403543,18.0877809 149.40973,16.8279494 C148.415917,15.568118 147.074803,14.6151685 145.386389,13.9691011 C143.697975,13.3230337 141.795838,13 139.679978,13 C135.832958,13 132.867548,13.974485 130.783746,15.9234551 C128.699944,17.8724251 127.658043,20.7312734 127.658043,24.5 C127.658043,28.3117978 128.577053,31.1814139 130.415073,33.1088483 C132.253093,35.0362828 134.999438,36 138.654106,36 Z M174.591676,35.6123596 L174.591676,30.2823034 L162.37739,30.2823034 L162.37739,26.8904494 L172.636108,26.8904494 L172.636108,21.7865169 L162.37739,21.7865169 L162.37739,18.7176966 L174.367267,18.7176966 L174.367267,13.3876404 L155.292463,13.3876404 L155.292463,35.6123596 L174.591676,35.6123596 Z M185.523622,35.6123596 L185.523622,27.5042135 L188.152418,27.5042135 L192.063555,35.6123596 L200.014061,35.6123596 L195.109111,26.3089888 C196.498313,25.7921348 197.556243,24.9845506 198.282902,23.886236 C199.009561,22.7879213 199.372891,21.5603933 199.372891,20.2036517 C199.372891,18.9761236 199.089708,17.8401217 198.523341,16.7956461 C197.956974,15.7511704 197.112767,14.9220506 195.99072,14.3082865 C194.868673,13.6945225 193.516873,13.3876404 191.935321,13.3876404 L191.935321,13.3876404 L178.438695,13.3876404 L178.438695,35.6123596 L185.523622,35.6123596 Z M190.172103,22.5617978 L185.523622,22.5617978 L185.523622,18.4592697 L190.172103,18.4592697 C190.727784,18.4592697 191.197975,18.6530899 191.582677,19.0407303 C191.967379,19.4283708 192.15973,19.9129213 192.15973,20.494382 C192.15973,21.0758427 191.967379,21.5657772 191.582677,21.9641854 C191.197975,22.3625936 190.727784,22.5617978 190.172103,22.5617978 L190.172103,22.5617978 Z M213.286277,36 C216.235658,36 218.591957,35.3647004 220.355174,34.0941011 C222.118391,32.8235019 223,30.8745318 223,28.247191 C222.978628,26.6966292 222.540495,25.4691011 221.685602,24.5646067 C220.830709,23.6601124 219.831552,23.008661 218.688133,22.6102528 C217.544713,22.2118446 216.086052,21.829588 214.312148,21.4634831 C212.794713,21.161985 211.694038,20.8712547 211.010124,20.5912921 C210.326209,20.3113296 209.984252,19.880618 209.984252,19.2991573 C209.984252,18.8899813 210.235377,18.545412 210.737627,18.2654494 C211.239876,17.9854869 211.961192,17.8455056 212.901575,17.8455056 C213.86333,17.8455056 214.579303,18.0608614 215.049494,18.491573 C215.519685,18.9222846 215.754781,19.4606742 215.754781,20.1067416 L215.754781,20.1067416 L215.754781,20.2359551 L222.390889,20.2359551 L222.390889,19.8483146 C222.348144,17.5870787 221.418448,15.8803839 219.6018,14.7282303 C217.785152,13.5760768 215.466254,13 212.645107,13 C209.781215,13 207.414229,13.5760768 205.544151,14.7282303 C203.674072,15.8803839 202.739033,17.673221 202.739033,20.1067416 C202.739033,21.7649813 203.177165,23.0786517 204.053431,24.0477528 C204.929696,25.0168539 205.955568,25.7113764 207.131046,26.1313202 C208.306524,26.551264 209.791901,26.9550562 211.587177,27.3426966 C213.061867,27.6441948 214.125141,27.9295412 214.776997,28.198736 C215.428853,28.4679307 215.754781,28.8717228 215.754781,29.4101124 C215.754781,30.0131086 215.460911,30.4115169 214.873172,30.6053371 C214.285433,30.7991573 213.542745,30.8960674 212.645107,30.8960674 C211.426884,30.8960674 210.529246,30.7076311 209.952193,30.3307584 C209.375141,29.9538858 209.086614,29.2055243 209.086614,28.0856742 L209.086614,28.0856742 L202.386389,28.0856742 C202.386389,31.0360487 203.342801,33.0926966 205.255624,34.255618 C207.168448,35.4185393 209.845332,36 213.286277,36 Z" id="BAGGERS" fill="#3D3D3D" fill-rule="nonzero"></path>
    </g>
</svg>