<?xml version="1.0" encoding="UTF-8"?>
<svg width="64px" height="64px" viewBox="0 0 64 64" version="1.1" xmlns="http://www.w3.org/2000/svg" xmlns:xlink="http://www.w3.org/1999/xlink">
    <title>Logo / Icon Light Large</title>
    <defs>
        <circle id="path-1" cx="32" cy="32" r="32"></circle>
        <circle id="path-3" cx="32" cy="32" r="32"></circle>
    </defs>
    <g id="Logo-/-Icon-Light-Large" stroke="none" stroke-width="1" fill="none" fill-rule="evenodd">
        <g id="Group">
            <mask id="mask-2" fill="white">
                <use xlink:href="#path-1"></use>
            </mask>
            <circle stroke="#FFFFFF" stroke-width="3" cx="32" cy="32" r="30.5"></circle>
            <path d="M63.8644586,-1.3647203 C66.5031792,-2.27207392 69.3788379,-0.871420597 70.2874226,1.76372673 C71.1960065,4.39887436 69.793454,7.27063925 67.1547337,8.17799372 C65.5636607,8.72510199 63.886443,8.43307779 62.6062553,7.53726203 L48.8418488,17.895977 L48.9175857,18.1007138 C49.8016133,20.6646412 48.4977426,23.4525686 45.996117,24.4371502 L45.7848969,24.5149808 C45.0598993,24.7642793 44.3170155,24.8393476 43.6019587,24.7624515 L34.6062424,42.4011196 C34.8538386,42.7642826 35.0576723,43.1659927 35.2078009,43.6014071 C36.1163848,46.2365547 34.7138323,49.1083196 32.075112,50.0156741 C29.4363914,50.9230277 26.5607327,49.5223744 25.652148,46.8872271 C25.3089614,45.8918898 25.295503,44.8627944 25.5538446,43.9185511 L14.7255324,36.8930336 C14.1967353,37.4265122 13.54015,37.849885 12.7813396,38.1108107 C11.9480594,38.3973434 11.0911511,38.4537148 10.2800221,38.3137313 L-0.285188709,53.385994 C-0.181554682,53.5905274 -0.090654506,53.8045379 -0.0138209958,54.0273764 C0.894762895,56.662524 -0.507789562,59.5342889 -3.14650987,60.4416434 C-5.78523046,61.348997 -8.66088915,59.9483437 -9.56947389,57.3131963 C-10.4780578,54.6780487 -9.07550533,51.8062838 -6.43678502,50.8989294 C-5.1709123,50.4636449 -3.85051051,50.5595265 -2.71891423,51.0680527 L7.35770982,36.6920521 C6.92683058,36.2081509 6.58266729,35.6328717 6.35837559,34.9823637 C5.4497917,32.3472161 6.85234416,29.4754512 9.49106446,28.5680967 C12.1297851,27.6607431 15.0054437,29.0613964 15.9140285,31.6965437 C16.1623981,32.4168853 16.2380677,33.154908 16.1629954,33.8656521 L27.4340827,41.1789108 C27.8358193,40.8838472 28.288456,40.6436464 28.7848369,40.4729601 C29.8274034,40.1144619 30.9069574,40.1162584 31.8875597,40.4121373 L40.5944369,23.3409728 C40.0540764,22.8106879 39.6253406,22.1504891 39.3619328,21.3865337 C38.453349,18.7513861 39.8559014,15.8796212 42.4946217,14.9722667 C43.9344281,14.4771732 45.4447779,14.6692406 46.6676191,15.3740719 L60.6643347,4.83942146 C59.8984519,2.26345181 61.295722,-0.481430556 63.8644586,-1.3647203 Z" id="Trend-Line" fill="#F2C13C" mask="url(#mask-2)"></path>
            <mask id="mask-4" fill="white">
                <use xlink:href="#path-3"></use>
            </mask>
            <circle stroke="#061A25" stroke-width="5" cx="32" cy="32" r="29.5"></circle>
        </g>
    </g>
</svg>