<?xml version="1.0" encoding="UTF-8"?>
<svg width="193px" height="38px" viewBox="0 0 193 38" version="1.1" xmlns="http://www.w3.org/2000/svg" xmlns:xlink="http://www.w3.org/1999/xlink">
    <title>Logo / Full Dark</title>
    <defs>
        <circle id="path-1" cx="19" cy="19" r="19"></circle>
        <circle id="path-3" cx="19" cy="19" r="19"></circle>
    </defs>
    <g id="Logo" stroke="none" stroke-width="1" fill="none" fill-rule="evenodd">
        <g id="Dark-Theme-Logo" transform="translate(-16.000000, -5.000000)">
            <g id="Logo-/-Full-Dark" transform="translate(16.000000, 5.000000)">
                <g id="Group">
                    <mask id="mask-2" fill="white">
                        <use xlink:href="#path-1"></use>
                    </mask>
                    <circle stroke="#FFFFFF" stroke-width="3" cx="19" cy="19" r="17.5"></circle>
                    <path d="M38.3635699,-1.41846899 C39.9353062,-1.95986876 41.6481733,-1.1241273 42.1893655,0.448211818 C42.7305578,2.02055094 41.8951367,3.73407487 40.3234003,4.27547465 C39.3752778,4.60206461 38.3757993,4.42752734 37.6131388,3.89246856 L29.4143333,10.0746667 L29.4605637,10.196161 C29.9824276,11.7123452 29.2242519,13.3598096 27.7601521,13.9609914 L27.5945985,14.0234239 C27.1627768,14.172169 26.7203021,14.2169633 26.2943998,14.1710906 L20.9363385,24.6960612 C21.083713,24.9126639 21.2050449,25.1522412 21.2944212,25.4119082 C21.8356134,26.9842473 21.0001923,28.6977712 19.4284559,29.239171 C17.8567196,29.7805708 16.1438525,28.9448293 15.6026603,27.3724902 C15.3983844,26.7790024 15.3902381,26.1653996 15.5437881,25.6023077 L9.09402329,21.4094308 C8.77909539,21.7276179 8.38809919,21.9801357 7.93624819,22.1357802 C7.43960414,22.306854 6.92886875,22.3404257 6.44546075,22.2567042 L0.153581842,31.2508153 C0.215175878,31.372662 0.26921028,31.5001429 0.314895339,31.6328728 C0.856087569,33.2052119 0.0206664861,34.9187359 -1.55106988,35.4601357 C-3.12280624,36.0015354 -4.83567329,35.165794 -5.37686552,33.5934548 C-5.91805775,32.0211157 -5.08263667,30.3075918 -3.51090031,29.766192 C-2.75700217,29.5065045 -1.97063364,29.5636602 -1.29667169,29.8669709 L4.70505513,21.288511 C4.4487059,20.9999274 4.24393857,20.6569196 4.11045254,20.2690994 C3.56926031,18.6967603 4.40468139,16.9832363 5.97641775,16.4418365 C7.54815411,15.9004368 9.26102117,16.7361782 9.8022134,18.3085174 C9.95008649,18.7381367 9.99518466,19.1782966 9.95056946,19.6022066 L16.6651401,23.9656578 C16.9041623,23.7899633 17.1734052,23.6469188 17.4686255,23.5452274 C18.0900263,23.3311799 18.7334871,23.332392 19.3178788,23.5092794 L24.5037076,13.323676 C24.1814818,13.0071369 23.9258253,12.6129442 23.7688029,12.1567431 C23.2276106,10.5844039 24.0630317,8.87088001 25.6347681,8.32948023 C26.4921866,8.03413413 27.391605,8.14861905 28.1198956,8.56894581 L36.4569926,2.28191625 C36.0017858,0.74532203 36.8340166,-0.891599595 38.3635699,-1.41846899 Z" id="Trend-Line" fill="#F2C13C" mask="url(#mask-2)"></path>
                    <mask id="mask-4" fill="white">
                        <use xlink:href="#path-3"></use>
                    </mask>
                    <circle stroke="#FFFFFF" stroke-width="3" cx="19" cy="19" r="17.5"></circle>
                </g>
                <text id="baggers" font-family="ArchivoBlack-Regular, Archivo Black" font-size="28" font-weight="700" fill="#FFFFFF">
                    <tspan x="41.1666667" y="29.5208333">BAGGERS</tspan>
                </text>
            </g>
        </g>
    </g>
</svg>