<?xml version="1.0" encoding="UTF-8"?>
<svg width="40px" height="40px" viewBox="0 0 40 40" version="1.1" xmlns="http://www.w3.org/2000/svg" xmlns:xlink="http://www.w3.org/1999/xlink">
    <title>Logo Mono Small</title>
    <defs>
        <circle id="path-1" cx="20" cy="20" r="20"></circle>
    </defs>
    <g id="Logo-Mono-Small" stroke="none" stroke-width="1" fill="none" fill-rule="evenodd">
        <g id="Group">
            <mask id="mask-2" fill="white">
                <use xlink:href="#path-1"></use>
            </mask>
            <circle stroke="#FFFFFF" stroke-width="2.5" cx="20" cy="20" r="18.75"></circle>
            <path d="M40.3827051,-1.49312525 C42.0371645,-2.06301975 43.8401824,-1.18329189 44.4098584,0.471801914 C44.9795345,2.12689572 44.1001439,3.93060513 42.4456845,4.50049963 C41.4481189,4.84412075 40.396544,4.66072363 39.5938832,4.0981106 L30.9626667,10.6053333 L31.0111197,10.7328011 C31.5604502,12.3287844 30.7623704,14.0629575 29.2212128,14.6957804 L29.0469458,14.7614988 C28.5924759,14.9180453 28.1267963,14.9652081 27.6785503,14.9169628 L22.0382463,25.9958469 C22.1933795,26.2238515 22.321099,26.4760406 22.4151802,26.749377 C22.9848562,28.4044708 22.1054656,30.2081802 20.4510063,30.7780747 C18.7965469,31.3479692 16.993529,30.4682414 16.423853,28.8131476 C16.2086501,28.1879134 16.2002368,27.5414709 16.3622785,26.9483455 L9.57232103,22.5365814 C9.24087573,22.8713558 8.82941787,23.1370402 8.35394546,23.3008212 C7.83132376,23.4808433 7.29387823,23.5162157 6.78516716,23.4281913 L0.161618916,32.8955037 C0.226473916,33.023791 0.283367825,33.158012 0.331468778,33.2977609 C0.901144809,34.9528547 0.0217541959,36.7565641 -1.63270513,37.3264586 C-3.28716446,37.8963531 -5.09018241,37.0166252 -5.65985844,35.3615314 C-6.22953448,33.7064376 -5.35014386,31.9027282 -3.69568453,31.3328337 C-2.90227244,31.0595352 -2.07469519,31.1196174 -1.36535981,31.4387177 L4.95318171,22.4095128 C4.68311037,22.1056257 4.46738916,21.7443741 4.32679215,21.3358941 C3.75711612,19.6808003 4.63650673,17.8770909 6.29096606,17.3071964 C7.94542538,16.7373019 9.74844334,17.6170297 10.3181194,19.2721235 C10.4737921,19.7244032 10.5212573,20.1877807 10.4742684,20.6340462 L17.5410551,25.227889 C17.7929556,25.0425447 18.0767755,24.8916634 18.3880269,24.7844498 C19.0419322,24.5592058 19.7190444,24.5604119 20.3340429,24.7464385 L25.792643,14.0242014 C25.4538035,13.6911247 25.1849601,13.2764371 25.0197925,12.7965716 C24.4501164,11.1414778 25.3295071,9.33776843 26.9839664,8.76787393 C27.8864346,8.45701005 28.8331055,8.577473 29.5996922,9.01982873 L38.376008,2.40278075 C37.8963409,0.785091878 38.7723957,-0.938438608 40.3827051,-1.49312525 Z" id="Trend-Line" fill="#FFFFFF" mask="url(#mask-2)"></path>
        </g>
    </g>
</svg>