<?xml version="1.0" encoding="UTF-8"?>
<svg width="223px" height="50px" viewBox="0 0 223 50" version="1.1" xmlns="http://www.w3.org/2000/svg" xmlns:xlink="http://www.w3.org/1999/xlink">
    <title>Logo Beta</title>
    <defs>
        <circle id="path-1" cx="19.5" cy="19.5" r="19.5"></circle>
        <circle id="path-3" cx="19.5" cy="19.5" r="19.5"></circle>
    </defs>
    <g id="Logo-Beta" stroke="none" stroke-width="1" fill="none" fill-rule="evenodd">
        <g id="Group" transform="translate(7.000000, 5.000000)">
            <mask id="mask-2" fill="white">
                <use xlink:href="#path-1"></use>
            </mask>
            <circle stroke="#FFFFFF" stroke-width="3" cx="19.5" cy="19.5" r="18"></circle>
            <path d="M38.9174044,-0.831626435 C40.5253748,-1.38454505 42.2777293,-0.531021926 42.8313982,1.07477098 C43.3850665,2.68056406 42.5303861,4.43054579 40.9224159,4.98346492 C39.953072,5.31678465 38.9312572,5.13898615 38.1512089,4.59338433 L29.7620016,10.9060016 L29.8091538,11.0301225 C30.3430483,12.5785658 29.567394,14.2610825 28.0695417,14.8750556 L27.9001715,14.9388164 C27.4585506,15.0906727 27.0060388,15.1364413 26.5704597,15.0896744 L21.0883292,25.8384026 C21.2391403,26.0596472 21.3632994,26.3043649 21.4547537,26.5696075 C22.008422,28.1754005 21.1537416,29.9253823 19.5457714,30.4783014 C17.937801,31.03122 16.1854465,30.1776969 15.6317777,28.571904 C15.4227052,27.9655353 15.4144516,27.3386064 15.5717457,26.7633365 L8.97202123,22.4830535 C8.65001828,22.807501 8.25038333,23.0649957 7.78862883,23.2237753 C7.28095602,23.3983443 6.75889088,23.4327179 6.26470184,23.3474841 L-0.173408245,32.5328376 C-0.110413463,32.6572491 -0.0551489969,32.7874118 -0.00842216931,32.9229325 C0.545246139,34.5287256 -0.309434264,36.2787073 -1.91740445,36.8316264 C-3.52537481,37.384545 -5.27772933,36.5310219 -5.83139815,34.925229 C-6.38506646,33.3194359 -5.53038606,31.5694542 -3.92241587,31.0165351 C-3.15108555,30.7513045 -2.34653182,30.8097022 -1.65700159,31.1195213 L4.48319009,22.3587538 C4.22081675,22.0639731 4.01124098,21.7135727 3.87463512,21.3173779 C3.32096682,19.7115848 4.17564722,17.9616031 5.7836174,17.4086839 C7.39158777,16.8557653 9.14394228,17.7092884 9.69761111,19.3150813 C9.84893936,19.7539756 9.89505909,20.2036413 9.84934524,20.6366928 L16.7185268,25.0927507 C16.9631153,24.9132427 17.2386413,24.767097 17.54076,24.66321 C18.1764108,24.4446344 18.8346247,24.4458462 19.4324321,24.6264331 L24.737542,14.2237066 C24.4081152,13.900513 24.1467418,13.4980989 23.9861778,13.032419 C23.4325095,11.4266259 24.2871899,9.67664418 25.8951601,9.12372505 C26.7724149,8.82207118 27.6926445,8.93903457 28.4377561,9.36838821 L36.9671722,2.94849499 C36.5008099,1.37891627 37.3522559,-0.293432032 38.9174044,-0.831626435 Z" id="Trend-Line" fill="#F2C13C" mask="url(#mask-2)"></path>
            <mask id="mask-4" fill="white">
                <use xlink:href="#path-3"></use>
            </mask>
            <circle stroke="#FFFFFF" stroke-width="3" cx="19.5" cy="19.5" r="18"></circle>
        </g>
        <text id="baggers" font-family="ArchivoBlack-Regular, Archivo Black" font-size="28" font-weight="700" fill="#FFFFFF">
            <tspan x="51" y="35">BAGGERS</tspan>
        </text>
        <g id="Group" transform="translate(51.000000, 35.000000)">
            <rect id="Rectangle" fill="#EC4C3E" x="0" y="0" width="70" height="15" rx="4"></rect>
            <text id="beta" font-family="ArchivoBlack-Regular, Archivo Black" font-size="12" font-weight="700" fill="#FFFFFF">
                <tspan x="17" y="12">BETA</tspan>
            </text>
        </g>
    </g>
</svg>