<?xml version="1.0" encoding="UTF-8"?>
<svg width="48px" height="48px" viewBox="0 0 48 48" version="1.1" xmlns="http://www.w3.org/2000/svg" xmlns:xlink="http://www.w3.org/1999/xlink">
    <title>Logo Mono</title>
    <defs>
        <circle id="path-1" cx="24" cy="24" r="24"></circle>
        <circle id="path-3" cx="24" cy="24" r="24"></circle>
    </defs>
    <g id="Login" stroke="none" stroke-width="1" fill="none" fill-rule="evenodd">
        <g id="Without-Paper" transform="translate(-488.000000, -258.000000)">
            <g id="Group" transform="translate(488.000000, 258.000000)">
                <mask id="mask-2" fill="white">
                    <use xlink:href="#path-1"></use>
                </mask>
                <circle stroke="#FFFFFF" stroke-width="3" cx="24" cy="24" r="22.5"></circle>
                <path d="M48.4592462,-1.7917503 C50.4445974,-2.4756237 52.6082189,-1.41995027 53.2918301,0.566162297 C53.9754414,2.55227487 52.9201726,4.71672615 50.9348214,5.40059955 C49.7378261,5.81291615 48.4760287,5.59289904 47.5128613,4.91787391 L37.156,12.726 L37.2133436,12.8793613 C37.8749029,14.8014057 36.9079585,16.8904687 35.0455351,17.643051 L34.8563349,17.7137986 C34.3109532,17.9016606 33.752119,17.9582534 33.2142075,17.9003496 L26.445825,31.1949126 C26.6320167,31.4685454 26.7853045,31.7712073 26.8982162,32.0992524 C27.5818274,34.085365 26.5265587,36.2498163 24.5412075,36.9336897 C22.5558563,37.6175631 20.3922348,36.5618896 19.7086235,34.5757771 C19.4503865,33.8255146 19.4402846,33.0498034 19.6347198,32.3380674 L11.4871501,27.0435291 C11.0893529,27.4454319 10.5954759,27.7643881 10.0247346,27.9609855 C9.39758432,28.1770135 8.75264525,28.2194594 8.14218834,28.1138275 L0.193589004,39.473905 C0.271561861,39.6280613 0.339953965,39.7893604 0.397762533,39.957313 C1.08137377,41.9434256 0.026105035,44.1078769 -1.95924616,44.7917503 C-3.94459735,45.4756237 -6.10821889,44.4199503 -6.79183013,42.4338377 C-7.47544137,40.4477251 -6.42017263,38.2832738 -4.43482144,37.5994004 C-3.4826821,37.2714269 -2.48954073,37.3435476 -1.63831156,37.7265154 L5.94406268,26.8916906 C5.61986271,26.5269689 5.36090944,26.0933722 5.19215058,25.6030729 C4.50853934,23.6169603 5.56380807,21.452509 7.54915927,20.7686356 C9.53451046,20.0847622 11.698132,21.1404357 12.3817432,23.1265482 C12.5685433,23.6692631 12.6255043,24.2252941 12.5691286,24.7607938 L21.0498829,30.273013 C21.35201,30.0508073 21.6923846,29.8699086 22.0656322,29.7413398 C22.8501662,29.4710995 23.6625375,29.4724937 24.4004212,29.6955961 L30.9518221,16.829681 C30.5449083,16.4298804 30.2220578,15.9320316 30.023751,15.355886 C29.3401397,13.3697734 30.3954085,11.2053221 32.3807597,10.5214487 C33.4640666,10.1482932 34.6004508,10.2930598 35.5205101,10.8243022 L46.0517019,2.88499568 C45.4750103,0.943288591 46.5263244,-1.12593674 48.4592462,-1.7917503 Z" id="Trend-Line" fill="#061A25" mask="url(#mask-2)"></path>
                <mask id="mask-4" fill="white">
                    <use xlink:href="#path-3"></use>
                </mask>
                <circle stroke="#121212" stroke-width="3" cx="24" cy="24" r="22.5"></circle>
            </g>
        </g>
    </g>
</svg>