<svg width="119" height="92" viewBox="0 0 119 92" fill="none" xmlns="http://www.w3.org/2000/svg">
<path d="M41.75 65.9777L49.5909 52.1254L62.9205 63.3641L67.2143 49.2264L76.25 44.5459" stroke="black" stroke-width="2"/>
<circle cx="59" cy="55" r="21" stroke="black" stroke-width="4"/>
<circle cx="68.4091" cy="49.7726" r="3.68182" fill="black" stroke="black"/>
<circle cx="63.1818" cy="64.4094" r="3.68182" fill="black" stroke="black"/>
<circle cx="49.591" cy="52.3859" r="3.68182" fill="black" stroke="black"/>
<path d="M114.5 21V80C114.5 84.4183 110.918 88 106.5 88H12C7.58172 88 4 84.4183 4 80V12C4 7.58172 7.58172 4 12 4H35.4371C37.705 4 39.8663 4.96257 41.3835 6.64828L43.5 9M114.5 21H53.544C50.2092 21 47.2243 18.9314 46.0534 15.809L43.5 9M114.5 21V17C114.5 12.5817 110.918 9 106.5 9H43.5" stroke="black" stroke-width="8"/>
</svg>
