<svg width="200" height="193" viewBox="0 0 200 193" fill="none" xmlns="http://www.w3.org/2000/svg">
<path d="M200 96C200 151.228 128.728 193 73.5 193C18.2715 193 0 151.228 0 96C0 40.7715 69.7715 0.5 125 0.5C180.228 0.5 200 40.7715 200 96Z" fill="#EEE6FF"/>
<path fill-rule="evenodd" clip-rule="evenodd" d="M104.509 46.9785C104.021 47.2871 102.3 49.774 100.684 52.5045C99.0689 55.2351 97.3681 57.722 96.9046 58.0305C96.4419 58.3391 84.2772 58.5965 69.8711 58.6034C39.4803 58.6164 41.2356 58.168 41.2356 65.9251V70.8355H43.9575C46.2797 70.8355 46.6795 70.5773 46.6795 69.0787C46.6795 68.1126 47.0994 66.9096 47.6127 66.4055C48.3196 65.7112 61.1314 65.4889 100.515 65.4889H152.485L153.234 67.4252C153.646 68.4899 153.9 69.7784 153.798 70.2894C153.686 70.8515 154.532 71.2174 155.946 71.2174C158.168 71.2174 158.29 71.0501 158.512 67.6818C158.833 62.8134 157.521 61.67 151.613 61.67H147.002V55.5597C147.002 46.0039 147.949 46.3919 124.643 46.4057C114.057 46.4126 104.997 46.67 104.509 46.9785ZM34.2799 73.8478C33.4478 74.6651 32.5542 76.4692 32.2937 77.8577C32.0323 79.2463 31.925 94.0378 32.0557 110.727L32.2921 141.071L34.4479 143.188L36.6044 145.305L98.8411 145.513C166.831 145.742 165.057 145.848 167.114 141.413C167.731 140.084 168 129.919 168 107.946C168 77.1764 167.96 76.3378 166.388 74.3756L164.776 72.363H100.284C37.4451 72.363 35.7528 72.4012 34.2799 73.8478Z" fill="#742FF6"/>
</svg>
