<svg width="200" height="193" viewBox="0 0 200 193" fill="none" xmlns="http://www.w3.org/2000/svg">
<path d="M200 95.5C200 150.728 128.728 192.5 73.5 192.5C18.2715 192.5 0 150.728 0 95.5C0 40.2715 69.7715 0 125 0C180.228 0 200 40.2715 200 95.5Z" fill="#312E55"/>
<path fill-rule="evenodd" clip-rule="evenodd" d="M104.509 46.4785C104.021 46.7871 102.3 49.274 100.684 52.0045C99.0689 54.7351 97.3681 57.222 96.9046 57.5305C96.4419 57.8391 84.2772 58.0965 69.8711 58.1034C39.4803 58.1164 41.2356 57.668 41.2356 65.4251V70.3355H43.9575C46.2797 70.3355 46.6795 70.0773 46.6795 68.5787C46.6795 67.6126 47.0994 66.4096 47.6127 65.9055C48.3196 65.2112 61.1314 64.9889 100.515 64.9889H152.485L153.234 66.9252C153.646 67.9899 153.9 69.2784 153.798 69.7894C153.686 70.3515 154.532 70.7174 155.946 70.7174C158.168 70.7174 158.29 70.5501 158.512 67.1818C158.833 62.3134 157.521 61.17 151.613 61.17H147.002V55.0597C147.002 45.5039 147.949 45.8919 124.643 45.9057C114.057 45.9126 104.997 46.17 104.509 46.4785ZM34.2799 73.3478C33.4478 74.1651 32.5542 75.9692 32.2937 77.3577C32.0323 78.7463 31.925 93.5378 32.0557 110.227L32.2921 140.571L34.4479 142.688L36.6044 144.805L98.8411 145.013C166.831 145.242 165.057 145.348 167.114 140.913C167.731 139.584 168 129.419 168 107.446C168 76.6764 167.96 75.8378 166.388 73.8756L164.776 71.863H100.284C37.4451 71.863 35.7528 71.9012 34.2799 73.3478Z" fill="#9A6AFF"/>
</svg>
