<svg width="234" height="200" viewBox="0 0 234 200" fill="none" xmlns="http://www.w3.org/2000/svg">
<path d="M233.5 78.5C233.5 133.728 159.228 200 104 200C48.7715 200 0 133.728 0 78.5C0 23.2715 48.7715 0 104 0C159.228 0 233.5 23.2715 233.5 78.5Z" fill="#312E55"/>
<path fill-rule="evenodd" clip-rule="evenodd" d="M108.509 50.9785C108.021 51.2871 106.3 53.774 104.684 56.5045C103.069 59.2351 101.368 61.722 100.905 62.0305C100.442 62.3391 88.2772 62.5965 73.8711 62.6034C43.4803 62.6164 45.2356 62.168 45.2356 69.9251V74.8355H47.9575C50.2797 74.8355 50.6795 74.5773 50.6795 73.0787C50.6795 72.1126 51.0994 70.9096 51.6127 70.4055C52.3196 69.7112 65.1314 69.4889 104.515 69.4889H156.485L157.234 71.4252C157.646 72.4899 157.9 73.7784 157.798 74.2894C157.686 74.8515 158.532 75.2174 159.946 75.2174C162.168 75.2174 162.29 75.0501 162.512 71.6818C162.833 66.8134 161.521 65.67 155.613 65.67H151.002V59.5597C151.002 50.0039 151.949 50.3919 128.643 50.4057C118.057 50.4126 108.997 50.67 108.509 50.9785ZM38.2799 77.8478C37.4478 78.6651 36.5542 80.4692 36.2937 81.8577C36.0323 83.2463 35.925 98.0378 36.0557 114.727L36.2921 145.071L38.4479 147.188L40.6044 149.305L102.841 149.513C170.831 149.742 169.057 149.848 171.114 145.413C171.731 144.084 172 133.919 172 111.946C172 81.1764 171.96 80.3378 170.388 78.3756L168.776 76.363H104.284C41.4451 76.363 39.7528 76.4012 38.2799 77.8478Z" fill="#9A6AFF"/>
<path fill-rule="evenodd" clip-rule="evenodd" d="M117.287 87.5598C117.156 87.9066 117.075 94.7201 117.075 105.456V122.793H114.473H111.872V107.501C111.872 97.3775 111.796 92.0667 111.647 91.7871C111.437 91.3923 111.154 91.365 107.246 91.365C104.286 91.365 102.993 91.4414 102.809 91.6269C102.616 91.8213 102.549 94.0248 102.549 100.193L102.55 108.498L103.506 109.106C104.975 110.04 107.225 112.577 108.05 114.229C109.182 116.498 109.57 118.443 109.433 121.162L109.317 123.448H119.158C127.618 123.448 129 123.403 129 123.131C129 122.894 128.655 122.797 127.645 122.749L126.29 122.684L126.234 105.135C126.195 92.6123 126.109 87.5031 125.937 87.2935C125.75 87.0666 124.765 87 121.596 87H117.498L117.287 87.5598ZM88.6184 98.3664C88.2741 98.5683 88.2389 99.0628 88.2389 103.707C88.2389 106.522 88.2741 108.825 88.3168 108.825C88.3597 108.825 89.1157 108.493 89.9971 108.088C92.0106 107.163 93.496 106.811 95.5291 106.778L97.1266 106.752L97.1275 102.667C97.1283 98.8518 97.1008 98.5676 96.709 98.3566C96.1611 98.0615 89.124 98.07 88.6184 98.3664ZM92.792 108.065C89.047 108.989 85.98 111.424 84.3465 114.77C82.5718 118.405 82.5489 122.159 84.2786 125.848C85.3172 128.063 87.7097 130.474 89.9897 131.604C94.1944 133.688 98.9591 133.427 102.8 130.902C110.382 125.921 110.547 115.295 103.124 110.058C102.39 109.541 101.302 108.913 100.706 108.663C98.4869 107.734 95.1527 107.482 92.792 108.065ZM92.7482 110.774C89.9594 111.672 87.9068 113.458 86.5948 116.129C85.7545 117.841 85.7456 117.886 85.7456 120.391C85.7456 122.875 85.761 122.955 86.5545 124.572C90.3524 132.311 101.158 132.369 104.948 124.67C105.955 122.623 106.259 120.482 105.828 118.458C105.07 114.903 102.296 111.848 98.8431 110.766C97.1298 110.229 94.4296 110.233 92.7482 110.774ZM95.1228 111.025C94.3531 111.476 94.8804 112.972 95.8092 112.972C96.0208 112.972 96.3554 112.792 96.5527 112.572C97.4637 111.559 96.3209 110.322 95.1228 111.025ZM98.7913 114.351C98.6096 114.492 97.8577 115.713 97.1205 117.064C96.3833 118.414 95.7065 119.519 95.6163 119.519C95.5263 119.519 94.0274 118.93 92.2856 118.21C90.5435 117.489 89.0251 116.9 88.9108 116.9C88.529 116.9 88.0221 117.581 88.0221 118.093C88.0221 118.543 88.4601 118.788 91.9029 120.262C94.1686 121.232 95.9306 121.866 96.1368 121.787C96.639 121.593 96.9432 120.923 96.7966 120.334C96.6676 119.817 98.1792 116.651 99.2273 115.243C99.504 114.871 99.7301 114.513 99.7301 114.448C99.7301 114.176 99.0985 114.111 98.7913 114.351ZM80 123.12C80 123.372 80.2771 123.448 81.1925 123.448C82.1079 123.448 82.385 123.372 82.385 123.12C82.385 122.869 82.1079 122.793 81.1925 122.793C80.2771 122.793 80 122.869 80 123.12ZM95.0035 128.074C94.5896 128.491 94.7011 129.286 95.2253 129.655C95.4903 129.842 95.783 129.995 95.8758 129.995C96.1631 129.995 96.9115 129.139 96.9115 128.81C96.9115 128.009 95.579 127.495 95.0035 128.074ZM80 129.231V130.432H83.1546C86.6616 130.432 86.5428 130.519 85.1827 128.937L84.4031 128.031H82.2015H80V129.231ZM106.289 129.107C105.782 129.7 105.367 130.241 105.367 130.31C105.367 130.379 110.66 130.41 117.129 130.379L128.892 130.322V129.231V128.14L118.051 128.084L107.21 128.028L106.289 129.107Z" fill="#24263F"/>
</svg>
