<svg width="218" height="189" viewBox="0 0 218 189" fill="none" xmlns="http://www.w3.org/2000/svg">
<path d="M218 89C218 144.228 173.228 189 118 189C62.7715 189 0.5 125.228 0.5 70C0.5 14.7715 62.7715 0 118 0C173.228 0 218 33.7715 218 89Z" fill="#EEE6FF"/>
<path fill-rule="evenodd" clip-rule="evenodd" d="M122.509 39.9785C122.021 40.2871 120.3 42.774 118.684 45.5045C117.069 48.2351 115.368 50.722 114.905 51.0305C114.442 51.3391 102.277 51.5965 87.8711 51.6034C57.4803 51.6164 59.2356 51.168 59.2356 58.9251V63.8355H61.9575C64.2797 63.8355 64.6795 63.5773 64.6795 62.0787C64.6795 61.1126 65.0994 59.9096 65.6127 59.4055C66.3196 58.7112 79.1314 58.4889 118.515 58.4889H170.485L171.234 60.4252C171.646 61.4899 171.9 62.7784 171.798 63.2894C171.686 63.8515 172.532 64.2174 173.946 64.2174C176.168 64.2174 176.29 64.0501 176.512 60.6818C176.833 55.8134 175.521 54.67 169.613 54.67H165.002V48.5597C165.002 39.0039 165.949 39.3919 142.643 39.4057C132.057 39.4126 122.997 39.67 122.509 39.9785ZM52.2799 66.8478C51.4478 67.6651 50.5542 69.4692 50.2937 70.8577C50.0323 72.2463 49.925 87.0378 50.0557 103.727L50.2921 134.071L52.4479 136.188L54.6044 138.305L116.841 138.513C184.831 138.742 183.057 138.848 185.114 134.413C185.731 133.084 186 122.919 186 100.946C186 70.1764 185.96 69.3378 184.388 67.3756L182.776 65.363H118.284C55.4451 65.363 53.7528 65.4012 52.2799 66.8478Z" fill="#742FF6"/>
<path fill-rule="evenodd" clip-rule="evenodd" d="M105.232 75.2936C104.198 75.7957 103.148 78.1786 102.567 81.3422C102.283 82.8879 102.125 84.4621 102.216 84.84C102.508 86.063 103.465 87.4966 104.346 88.0315C105.164 88.5276 105.25 88.5321 106.082 88.1207C108.115 87.1165 108.785 85.5719 108.788 81.8756C108.79 79.5042 108.687 78.7472 108.19 77.5127C107.859 76.6911 107.281 75.7813 106.906 75.4913C106.107 74.8747 106.098 74.8734 105.232 75.2936ZM130.113 76.2096C129.878 76.4647 129.357 77.3742 128.956 78.231C128.377 79.4666 128.204 80.277 128.118 82.1474C128.014 84.4 128.042 84.5434 128.722 85.3377C129.672 86.447 131.17 86.8518 132.422 86.3377C133.819 85.7646 134.215 84.756 134.265 81.6479C134.302 79.368 134.227 78.8581 133.718 77.9227C132.655 75.9694 131.041 75.2025 130.113 76.2096ZM97.1152 82.5069C95.8144 82.8206 94.6548 83.6112 93.8747 84.7169L93.1506 85.743L93.0754 102.782L93 119.82L93.5884 121.163C94.0308 122.174 94.474 122.692 95.3752 123.253L96.5738 124H118.439C139.37 124 140.346 123.979 141.289 123.506C142.506 122.896 143.065 122.304 143.592 121.065C143.942 120.241 144 118.13 144 106.28V92.455L140.614 92.3733L137.229 92.292L140.614 92.2351L144 92.1785V89.1659C144 86.9058 143.892 85.9449 143.57 85.3186C142.485 83.214 141.069 82.4967 137.652 82.3204C134.872 82.1769 134.441 82.3884 134.441 83.8947C134.441 85.0174 133.775 86.0589 132.753 86.5354C131.602 87.0719 130.921 87.0732 129.847 86.5401C128.307 85.7756 127.845 85.171 127.654 83.6665L127.475 82.2601L118.415 82.3287L109.355 82.3973L109.153 83.7753C108.813 86.0972 107.601 87.8933 105.962 88.5031C105.006 88.8589 104.185 88.5381 103.243 87.4408C102.177 86.1987 101.726 84.9756 101.826 83.5964L101.913 82.3973L99.9216 82.3537C98.8263 82.3298 97.5634 82.3989 97.1152 82.5069ZM119.106 92.1128C121.699 92.1556 125.941 92.1556 128.533 92.1128C131.125 92.0703 129.004 92.0353 123.82 92.0353C118.635 92.0353 116.514 92.0703 119.106 92.1128ZM121.462 93.7714C120.167 94.0132 119.536 94.364 118.405 95.4705C117.341 96.5122 116.915 97.6432 116.922 99.4082C116.932 102.084 118.386 104.111 120.997 105.09C123.573 106.057 126.758 105.015 128.454 102.651C129.456 101.254 129.712 98.7642 128.996 97.3706C127.557 94.569 124.644 93.1772 121.462 93.7714ZM120.236 95.8275C120.147 95.9697 120.671 96.8114 121.402 97.698L122.729 99.3096L122.164 100.113C121.853 100.555 121.265 101.34 120.857 101.858C120.181 102.717 120.117 103.133 120.662 103.133C120.775 103.133 121.418 102.43 122.092 101.571L123.316 100.008L124.64 101.571C125.368 102.43 126.078 103.133 126.219 103.133C126.732 103.133 126.452 102.418 125.497 101.289C124.958 100.654 124.358 99.9453 124.162 99.715C123.855 99.3532 123.971 99.0765 125.008 97.6928C126.273 96.0052 126.444 95.5693 125.843 95.5693C125.642 95.5693 125.025 96.2149 124.472 97.0039C123.918 97.7929 123.373 98.4385 123.26 98.4385C123.147 98.4385 122.541 97.7929 121.914 97.0039C120.746 95.5354 120.52 95.3768 120.236 95.8275ZM98.8953 97.4517C98.6043 98.2285 98.8213 99.9083 99.2586 100.265C99.4665 100.434 100.629 100.515 102.208 100.47C104.717 100.398 104.83 100.369 105.21 99.703C105.511 99.1745 105.545 98.7742 105.352 98.0076L105.1 97.0039L102.109 96.9301C99.2052 96.8584 99.112 96.8735 98.8953 97.4517ZM110.021 97.3779C109.622 98.1116 109.684 99.2789 110.16 99.9453C110.54 100.478 110.786 100.525 113.213 100.525H115.854V99.5144C115.854 98.9586 115.928 98.1369 116.02 97.6886L116.185 96.8735H113.241C110.601 96.8735 110.268 96.9256 110.021 97.3779ZM132.215 97.2778C131.912 98.0545 132.043 99.933 132.422 100.242C132.663 100.439 133.706 100.518 135.4 100.47C137.909 100.398 138.021 100.369 138.401 99.703C138.703 99.1745 138.736 98.7742 138.543 98.0076L138.291 97.0039L135.335 96.9303C132.816 96.8677 132.356 96.9191 132.215 97.2778ZM99.0268 102.818C98.7955 103.185 98.7581 105.047 98.9692 105.685C99.1609 106.264 99.2482 106.278 102.123 106.207L105.081 106.133L105.328 105.285C105.48 104.763 105.48 104.113 105.328 103.59L105.081 102.742L102.124 102.669C100.498 102.628 99.1038 102.695 99.0268 102.818ZM110.005 103.281C109.622 104.271 109.691 105.389 110.163 105.854C110.489 106.173 111.185 106.263 113.334 106.263C115.04 106.263 116.156 106.155 116.267 105.978C116.543 105.541 116.453 103.747 116.127 103.147C115.861 102.66 115.587 102.612 113.05 102.612C110.304 102.612 110.261 102.621 110.005 103.281ZM132.383 102.784C131.951 102.956 131.94 105.528 132.37 105.95C132.574 106.151 133.617 106.263 135.275 106.263C137.648 106.263 137.897 106.215 138.276 105.684C138.503 105.365 138.689 104.804 138.689 104.438C138.689 104.071 138.503 103.51 138.276 103.192C137.895 102.657 137.66 102.613 135.289 102.632C133.873 102.644 132.566 102.712 132.383 102.784ZM126.213 105.635L125.023 106.263H125.982C126.509 106.263 127.086 106.091 127.264 105.881C127.895 105.134 127.387 105.015 126.213 105.635ZM99.0366 108.785C98.9392 108.88 98.8595 109.581 98.8595 110.34C98.8595 112.092 99.1516 112.263 102.161 112.263C104.758 112.263 105.498 111.854 105.498 110.42C105.498 108.74 105.255 108.611 102.081 108.611C100.504 108.611 99.1338 108.689 99.0366 108.785ZM110.021 109.115C109.622 109.849 109.684 111.016 110.16 111.683C110.536 112.211 110.792 112.263 113.021 112.263C116.077 112.263 116.65 111.959 116.65 110.344C116.65 109.735 116.507 109.096 116.332 108.924C116.123 108.719 115.024 108.611 113.154 108.611C110.6 108.611 110.267 108.665 110.021 109.115ZM121.226 108.916C121.046 109.092 120.899 109.735 120.899 110.344C120.899 111.937 121.487 112.263 124.359 112.263C127.295 112.263 127.596 112.061 127.487 110.168L127.404 108.741L124.478 108.668C122.428 108.617 121.454 108.691 121.226 108.916ZM132.228 108.785C132.131 108.88 132.051 109.581 132.051 110.34C132.051 111.44 132.156 111.778 132.565 111.993C133.225 112.34 137.241 112.344 137.899 111.999C138.526 111.669 138.814 110.27 138.448 109.326L138.172 108.611H135.288C133.702 108.611 132.325 108.689 132.228 108.785ZM99.1338 114.73C98.6736 115.275 98.6845 117.471 99.1489 117.76C99.6492 118.071 104.462 118.059 104.967 117.746C105.235 117.579 105.365 117.067 105.365 116.175C105.365 115.283 105.235 114.771 104.967 114.605C104.289 114.184 99.5085 114.287 99.1338 114.73ZM110.315 114.582C110.116 114.705 109.894 115.328 109.821 115.965C109.613 117.775 110.003 118.001 113.341 118.001C116.401 118.001 116.65 117.863 116.65 116.175C116.65 114.491 116.396 114.349 113.388 114.353C111.896 114.355 110.513 114.458 110.315 114.582ZM121.316 114.759C120.842 115.225 120.763 116.743 121.174 117.496C121.418 117.945 121.751 118.001 124.174 118.001C125.94 118.001 127.012 117.891 127.218 117.688C127.632 117.282 127.632 115.068 127.218 114.662C126.709 114.162 121.842 114.242 121.316 114.759Z" fill="#F5F2FA"/>
</svg>
