<svg width="218" height="189" viewBox="0 0 218 189" fill="none" xmlns="http://www.w3.org/2000/svg">
<path d="M217.5 89C217.5 144.228 172.728 189 117.5 189C62.2715 189 0 125.228 0 70C0 14.7715 62.2715 0 117.5 0C172.728 0 217.5 33.7715 217.5 89Z" fill="#312E55"/>
<path fill-rule="evenodd" clip-rule="evenodd" d="M122.009 39.9785C121.521 40.2871 119.8 42.774 118.184 45.5045C116.569 48.2351 114.868 50.722 114.405 51.0305C113.942 51.3391 101.777 51.5965 87.3711 51.6034C56.9803 51.6164 58.7356 51.168 58.7356 58.9251V63.8355H61.4575C63.7797 63.8355 64.1795 63.5773 64.1795 62.0787C64.1795 61.1126 64.5994 59.9096 65.1127 59.4055C65.8196 58.7112 78.6314 58.4889 118.015 58.4889H169.985L170.734 60.4252C171.146 61.4899 171.4 62.7784 171.298 63.2894C171.186 63.8515 172.032 64.2174 173.446 64.2174C175.668 64.2174 175.79 64.0501 176.012 60.6818C176.333 55.8134 175.021 54.67 169.113 54.67H164.502V48.5597C164.502 39.0039 165.449 39.3919 142.143 39.4057C131.557 39.4126 122.497 39.67 122.009 39.9785ZM51.7799 66.8478C50.9478 67.6651 50.0542 69.4692 49.7937 70.8577C49.5323 72.2463 49.425 87.0378 49.5557 103.727L49.7921 134.071L51.9479 136.188L54.1044 138.305L116.341 138.513C184.331 138.742 182.557 138.848 184.614 134.413C185.231 133.084 185.5 122.919 185.5 100.946C185.5 70.1764 185.46 69.3378 183.888 67.3756L182.276 65.363H117.784C54.9451 65.363 53.2528 65.4012 51.7799 66.8478Z" fill="#9A6AFF"/>
<path fill-rule="evenodd" clip-rule="evenodd" d="M104.732 75.2936C103.698 75.7957 102.648 78.1786 102.067 81.3422C101.783 82.8879 101.625 84.4621 101.716 84.84C102.008 86.063 102.965 87.4966 103.846 88.0315C104.664 88.5276 104.75 88.5321 105.582 88.1207C107.615 87.1165 108.285 85.5719 108.288 81.8756C108.29 79.5042 108.187 78.7472 107.69 77.5127C107.359 76.6911 106.781 75.7813 106.406 75.4913C105.607 74.8747 105.598 74.8734 104.732 75.2936ZM129.613 76.2096C129.378 76.4647 128.857 77.3742 128.456 78.231C127.877 79.4666 127.704 80.277 127.618 82.1474C127.514 84.4 127.542 84.5434 128.222 85.3377C129.172 86.447 130.67 86.8518 131.922 86.3377C133.319 85.7646 133.715 84.756 133.765 81.6479C133.802 79.368 133.727 78.8581 133.218 77.9227C132.155 75.9694 130.541 75.2025 129.613 76.2096ZM96.6152 82.5069C95.3144 82.8206 94.1548 83.6112 93.3747 84.7169L92.6506 85.743L92.5754 102.782L92.5 119.82L93.0884 121.163C93.5308 122.174 93.974 122.692 94.8752 123.253L96.0738 124H117.939C138.87 124 139.846 123.979 140.789 123.506C142.006 122.896 142.565 122.304 143.092 121.065C143.442 120.241 143.5 118.13 143.5 106.28V92.455L140.114 92.3733L136.729 92.292L140.114 92.2351L143.5 92.1785V89.1659C143.5 86.9058 143.392 85.9449 143.07 85.3186C141.985 83.214 140.569 82.4967 137.152 82.3204C134.372 82.1769 133.941 82.3884 133.941 83.8947C133.941 85.0174 133.275 86.0589 132.253 86.5354C131.102 87.0719 130.421 87.0732 129.347 86.5401C127.807 85.7756 127.345 85.171 127.154 83.6665L126.975 82.2601L117.915 82.3287L108.855 82.3973L108.653 83.7753C108.313 86.0972 107.101 87.8933 105.462 88.5031C104.506 88.8589 103.685 88.5381 102.743 87.4408C101.677 86.1987 101.226 84.9756 101.326 83.5964L101.413 82.3973L99.4216 82.3537C98.3263 82.3298 97.0634 82.3989 96.6152 82.5069ZM118.606 92.1128C121.199 92.1556 125.441 92.1556 128.033 92.1128C130.625 92.0703 128.504 92.0353 123.32 92.0353C118.135 92.0353 116.014 92.0703 118.606 92.1128ZM120.962 93.7714C119.667 94.0132 119.036 94.364 117.905 95.4705C116.841 96.5122 116.415 97.6432 116.422 99.4082C116.432 102.084 117.886 104.111 120.497 105.09C123.073 106.057 126.258 105.015 127.954 102.651C128.956 101.254 129.212 98.7642 128.496 97.3706C127.057 94.569 124.144 93.1772 120.962 93.7714ZM119.736 95.8275C119.647 95.9697 120.171 96.8114 120.902 97.698L122.229 99.3096L121.664 100.113C121.353 100.555 120.765 101.34 120.357 101.858C119.681 102.717 119.617 103.133 120.162 103.133C120.275 103.133 120.918 102.43 121.592 101.571L122.816 100.008L124.14 101.571C124.868 102.43 125.578 103.133 125.719 103.133C126.232 103.133 125.952 102.418 124.997 101.289C124.458 100.654 123.858 99.9453 123.662 99.715C123.355 99.3532 123.471 99.0765 124.508 97.6928C125.773 96.0052 125.944 95.5693 125.343 95.5693C125.142 95.5693 124.525 96.2149 123.972 97.0039C123.418 97.7929 122.873 98.4385 122.76 98.4385C122.647 98.4385 122.041 97.7929 121.414 97.0039C120.246 95.5354 120.02 95.3768 119.736 95.8275ZM98.3953 97.4517C98.1043 98.2285 98.3213 99.9083 98.7586 100.265C98.9665 100.434 100.129 100.515 101.708 100.47C104.217 100.398 104.33 100.369 104.71 99.703C105.011 99.1745 105.045 98.7742 104.852 98.0076L104.6 97.0039L101.609 96.9301C98.7052 96.8584 98.612 96.8735 98.3953 97.4517ZM109.521 97.3779C109.122 98.1116 109.184 99.2789 109.66 99.9453C110.04 100.478 110.286 100.525 112.713 100.525H115.354V99.5144C115.354 98.9586 115.428 98.1369 115.52 97.6886L115.685 96.8735H112.741C110.101 96.8735 109.768 96.9256 109.521 97.3779ZM131.715 97.2778C131.412 98.0545 131.543 99.933 131.922 100.242C132.163 100.439 133.206 100.518 134.9 100.47C137.409 100.398 137.521 100.369 137.901 99.703C138.203 99.1745 138.236 98.7742 138.043 98.0076L137.791 97.0039L134.835 96.9303C132.316 96.8677 131.856 96.9191 131.715 97.2778ZM98.5268 102.818C98.2955 103.185 98.2581 105.047 98.4692 105.685C98.6609 106.264 98.7482 106.278 101.623 106.207L104.581 106.133L104.828 105.285C104.98 104.763 104.98 104.113 104.828 103.59L104.581 102.742L101.624 102.669C99.9976 102.628 98.6038 102.695 98.5268 102.818ZM109.505 103.281C109.122 104.271 109.191 105.389 109.663 105.854C109.989 106.173 110.685 106.263 112.834 106.263C114.54 106.263 115.656 106.155 115.767 105.978C116.043 105.541 115.953 103.747 115.627 103.147C115.361 102.66 115.087 102.612 112.55 102.612C109.804 102.612 109.761 102.621 109.505 103.281ZM131.883 102.784C131.451 102.956 131.44 105.528 131.87 105.95C132.074 106.151 133.117 106.263 134.775 106.263C137.148 106.263 137.397 106.215 137.776 105.684C138.003 105.365 138.189 104.804 138.189 104.438C138.189 104.071 138.003 103.51 137.776 103.192C137.395 102.657 137.16 102.613 134.789 102.632C133.373 102.644 132.066 102.712 131.883 102.784ZM125.713 105.635L124.523 106.263H125.482C126.009 106.263 126.586 106.091 126.764 105.881C127.395 105.134 126.887 105.015 125.713 105.635ZM98.5366 108.785C98.4392 108.88 98.3595 109.581 98.3595 110.34C98.3595 112.092 98.6516 112.263 101.661 112.263C104.258 112.263 104.998 111.854 104.998 110.42C104.998 108.74 104.755 108.611 101.581 108.611C100.004 108.611 98.6338 108.689 98.5366 108.785ZM109.521 109.115C109.122 109.849 109.184 111.016 109.66 111.683C110.036 112.211 110.292 112.263 112.521 112.263C115.577 112.263 116.15 111.959 116.15 110.344C116.15 109.735 116.007 109.096 115.832 108.924C115.623 108.719 114.524 108.611 112.654 108.611C110.1 108.611 109.767 108.665 109.521 109.115ZM120.726 108.916C120.546 109.092 120.399 109.735 120.399 110.344C120.399 111.937 120.987 112.263 123.859 112.263C126.795 112.263 127.096 112.061 126.987 110.168L126.904 108.741L123.978 108.668C121.928 108.617 120.954 108.691 120.726 108.916ZM131.728 108.785C131.631 108.88 131.551 109.581 131.551 110.34C131.551 111.44 131.656 111.778 132.065 111.993C132.725 112.34 136.741 112.344 137.399 111.999C138.026 111.669 138.314 110.27 137.948 109.326L137.672 108.611H134.788C133.202 108.611 131.825 108.689 131.728 108.785ZM98.6338 114.73C98.1736 115.275 98.1845 117.471 98.6489 117.76C99.1492 118.071 103.962 118.059 104.467 117.746C104.735 117.579 104.865 117.067 104.865 116.175C104.865 115.283 104.735 114.771 104.467 114.605C103.789 114.184 99.0085 114.287 98.6338 114.73ZM109.815 114.582C109.616 114.705 109.394 115.328 109.321 115.965C109.113 117.775 109.503 118.001 112.841 118.001C115.901 118.001 116.15 117.863 116.15 116.175C116.15 114.491 115.896 114.349 112.888 114.353C111.396 114.355 110.013 114.458 109.815 114.582ZM120.816 114.759C120.342 115.225 120.263 116.743 120.674 117.496C120.918 117.945 121.251 118.001 123.674 118.001C125.44 118.001 126.512 117.891 126.718 117.688C127.132 117.282 127.132 115.068 126.718 114.662C126.209 114.162 121.342 114.242 120.816 114.759Z" fill="#24263F"/>
</svg>
