<?xml version="1.0" encoding="UTF-8"?>
<svg viewBox="0 0 361 367" version="1.1" xmlns="http://www.w3.org/2000/svg" xmlns:xlink="http://www.w3.org/1999/xlink">
    <title>Group 2</title>
    <defs>
        <rect id="path-1" x="0" y="0" width="361" height="367" rx="4"></rect>
    </defs>
    <g id="Portfolios---Overview" stroke="none" stroke-width="1" fill="none" fill-rule="evenodd">
        <g id="Portfolios-Overivew" transform="translate(-596.000000, -605.000000)">
            <g id="Group" transform="translate(596.000000, 605.000000)">
                <g id="Blob-Card">
                    <mask id="mask-2" fill="white">
                        <use xlink:href="#path-1"></use>
                    </mask>
                    <use id="Rectangle" fill="#FF6847" fill-rule="nonzero" xlink:href="#path-1"></use>
                    <path d="M95,381 C178.947282,381 338,333.989899 338,276 C338,218.010101 175.41648,310.463348 148,257.871697 C120.58352,205.280046 -57,218.010101 -57,276 C-57,333.989899 11.052718,381 95,381 Z" id="Oval" fill="#0069C0" opacity="0.129587573" mask="url(#mask-2)"></path>
                    <path d="M1029,156 C1069.31679,156 1102,128.017797 1102,93.5 C1102,58.9822031 1084.31679,17.0368976 1044,17.0368976 C1003.68321,17.0368976 956,58.9822031 956,93.5 C956,128.017797 988.683213,156 1029,156 Z" id="Oval" fill="#061A25" mask="url(#mask-2)"></path>
                    <path d="M920.667686,87 C944.761749,87 945.970859,76.254834 945.970859,63 C945.970859,49.745166 934.881488,30.9565171 910.787425,30.9565171 C886.693362,30.9565171 883.970859,49.745166 883.970859,63 C883.970859,76.254834 896.573623,87 920.667686,87 Z" id="Oval" fill="#061A25" mask="url(#mask-2)"></path>
                    <path d="M138.5,169 C191.243194,169 247,103.294593 247,43.3716972 C247,-16.5511982 197.743194,43.3716972 145,43.3716972 C92.2568064,43.3716972 43,0.577104647 43,60.5 C43,120.422895 85.7568064,169 138.5,169 Z" id="Oval" fill="#0069C0" opacity="0.188976199" mask="url(#mask-2)"></path>
                    <path d="M291.21217,212.371697 C384.548293,212.371697 518,149.336123 518,56 C518,-37.3361227 442.336123,-113 349,-113 C255.663877,-113 304.5,-51.3361227 304.5,42 C304.5,135.336123 197.876048,212.371697 291.21217,212.371697 Z" id="Oval" fill="#0069C0" opacity="0.173010538" mask="url(#mask-2)"></path>
                </g>
                <text id="Earn-money-as-a-Bagg" font-family="Roboto-Regular, Roboto" font-size="34" font-weight="normal" line-spacing="42" letter-spacing="0.25" fill="#FFFFFF">
                    <tspan x="42" y="51">Earn money as a </tspan>
                    <tspan x="42" y="93">Baggers Analyst</tspan>
                </text>
                <polygon id="Star" fill="#FFFFFF" points="178.5 233.75 132.358858 258.007834 141.171032 206.628917 103.842063 170.242166 155.429429 162.746083 178.5 116 201.570571 162.746083 253.157937 170.242166 215.828968 206.628917 224.641142 258.007834"></polygon>
            </g>
        </g>
    </g>
</svg>