<?xml version="1.0" encoding="UTF-8"?>
<svg width="193px" height="116px" viewBox="0 0 193 116" version="1.1" xmlns="http://www.w3.org/2000/svg" xmlns:xlink="http://www.w3.org/1999/xlink">
    <title>Group 4</title>
    <g id="Portfolios---Holdings-Tab---Desktop" stroke="none" stroke-width="1" fill="none" fill-rule="evenodd">
        <g id="No-positions" transform="translate(-729.000000, -466.000000)">
            <g id="Group-3" transform="translate(230.000000, 328.000000)">
                <g id="Group-Copy-2" transform="translate(399.000000, 105.000000)">
                    <g id="Group-4" transform="translate(100.044762, 33.698973)">
                        <path d="M74.6448369,115.301027 C112.752485,115.301027 192.568984,81.1278156 192.568984,43.0201679 C192.568984,4.91252017 121.479553,0 83.3719051,0 C45.2642574,0 0,36.2056102 0,74.3132579 C0,112.420906 36.5371892,115.301027 74.6448369,115.301027 Z" id="Oval" fill="#56DAB3"></path>
                        <g id="Group" transform="translate(38.955238, 3.601027)" fill="#000000" fill-opacity="0.54" fill-rule="nonzero">
                            <g id="Icons/EditFilled-Copy">
                                <path d="M33.3333333,45.8333333 L66.6666667,45.8333333 L66.6666667,54.1666667 L33.3333333,54.1666667 L33.3333333,45.8333333 Z M83.7500001,50 L91.6666667,50 C91.6666667,38.5 82.3333335,29.1666666 70.8333334,29.1666666 L54.1666667,29.1666666 L54.1666667,37.0833333 L70.8333334,37.0833333 C77.9583334,37.0833333 83.7500001,42.875 83.7500001,50 Z M16.2499999,50 C16.2499999,42.875 22.0416666,37.0833333 29.1666666,37.0833333 L45.8333332,37.0833333 L45.8333332,29.1666666 L29.1666666,29.1666666 C17.6666665,29.1666666 8.33333316,38.5 8.33333316,50 C8.33333316,61.5 17.6666665,70.8333334 29.1666666,70.8333334 L45.8333332,70.8333334 L45.8333332,62.9166667 L29.1666666,62.9166667 C22.0416666,62.9166667 16.2499999,57.125 16.2499999,50 Z M79.1666668,50 L70.8333334,50 L70.8333334,62.5 L58.3333334,62.5 L58.3333334,70.8333334 L70.8333334,70.8333334 L70.8333334,83.3333335 L79.1666668,83.3333335 L79.1666668,70.8333334 L91.6666668,70.8333334 L91.6666668,62.5 L79.1666668,62.5 L79.1666668,50 Z" id="AddLinkFilled"></path>
                            </g>
                        </g>
                    </g>
                </g>
            </g>
        </g>
    </g>
</svg>