<?xml version="1.0" encoding="UTF-8"?>
<svg viewBox="0 0 642 387" version="1.1" xmlns="http://www.w3.org/2000/svg" xmlns:xlink="http://www.w3.org/1999/xlink">
    <title>Group</title>
    <g id="Portfolios---Overview" stroke="none" stroke-width="1" fill="none" fill-rule="evenodd">
        <g id="No-portfolios" transform="translate(-399.000000, -289.000000)">
            <g id="Group" transform="translate(399.000000, 289.000000)">
                <path d="M382.301377,375.371697 C507.58359,334.992575 641.273439,153.760105 641.273439,59.8716972 C641.273439,-0.467463787 546.447693,29.4710677 444.90712,34.3716972 C388.449428,37.0965018 303.11435,-13.2441983 251.69691,3.37169715 C107.803913,49.8716972 0,157.48329 0,251.371697 C0,304.379193 81.9249408,349.928667 175.814278,372.278633 C248.224447,389.515572 327.750967,392.953584 382.301377,375.371697 Z" id="Oval" fill="#6EC6FF" opacity="0.336391715"></path>
                <ellipse id="Oval" fill="#C8B900" cx="302.273439" cy="209.371697" rx="61" ry="59"></ellipse>
                <path d="M292.273439,52.3716972 C301.662279,52.3716972 309.273439,59.9828564 309.273439,69.3716972 L309.273439,81.3716972 L508.273439,81.3716972 C516.55771,81.3716972 523.273439,88.0874259 523.273439,96.3716972 L523.273439,319.371697 C523.273439,327.655968 516.55771,334.371697 508.273439,334.371697 L110.273439,334.371697 C101.989167,334.371697 95.2734387,327.655968 95.2734387,319.371697 L95.2734387,69.3716972 C95.2734387,59.9828564 102.884598,52.3716972 112.273439,52.3716972 L292.273439,52.3716972 Z M341.067874,180.825693 L335.145433,185.290714 L335.325664,185.57324 C335.61684,186.051856 335.861424,186.568895 336.051238,187.120367 C337.475428,191.258101 335.276951,195.767375 331.140803,197.192111 C329.318945,197.819667 327.425031,197.7441 325.754298,197.109462 L325.754298,197.109462 L312.208041,223.707585 L312.445461,223.917774 C313.379217,224.77844 314.119034,225.876621 314.561389,227.161806 C315.985579,231.299541 313.787103,235.808814 309.650954,237.233551 C305.514806,238.658287 301.007261,236.458967 299.583071,232.321233 C298.987561,230.591083 299.02544,228.795974 299.573522,227.18857 L299.573522,227.18857 L282.781199,216.278875 L282.573749,216.506453 C281.725333,217.401525 280.654811,218.111045 279.408302,218.540417 C277.426059,219.22322 275.358513,219.073652 273.585942,218.277259 L273.585942,218.277259 L259.540037,238.344428 C268.31514,252.751396 284.170818,262.371697 302.273439,262.371697 C329.887676,262.371697 352.273439,239.985935 352.273439,212.371697 C352.273439,200.410641 348.073482,189.430538 341.067874,180.825693 L341.067874,180.825693 Z M302.273439,162.371697 C274.659201,162.371697 252.273439,184.75746 252.273439,212.371697 C252.273439,220.641582 254.281166,228.442537 257.835783,235.313724 L257.835783,235.313724 L271.036173,216.454626 L270.796491,216.185801 C270.172599,215.452966 269.672626,214.593267 269.340419,213.628099 C267.916229,209.490364 270.114705,204.981091 274.250854,203.556355 C278.387002,202.131618 282.894547,204.330938 284.318737,208.468673 C284.908695,210.182693 284.877019,211.960467 284.343482,213.556331 L284.343482,213.556331 L301.151773,224.475689 L301.375742,224.233585 C302.216452,223.362023 303.270236,222.670855 304.493506,222.249488 C306.166023,221.673374 307.899268,221.689835 309.464818,222.187419 L309.464818,222.187419 L323.090902,195.431995 L322.85347,195.195743 C322.077694,194.390332 321.460896,193.406989 321.07292,192.279793 C319.64873,188.142058 321.847206,183.632785 325.983355,182.208049 C328.391213,181.378639 330.924937,181.777416 332.90294,183.07182 L332.90294,183.07182 L339.018094,178.462181 C329.882842,168.568057 316.801759,162.371697 302.273439,162.371697 Z" id="Combined-Shape" fill="#FFEB3B"></path>
            </g>
        </g>
    </g>
</svg>