<?xml version="1.0" encoding="UTF-8"?>
<svg width="1438px" height="243px" viewBox="0 0 1438 243" version="1.1" xmlns="http://www.w3.org/2000/svg" xmlns:xlink="http://www.w3.org/1999/xlink">
    <title>graph copy</title>
    <defs>
        <linearGradient x1="50%" y1="0.885052448%" x2="50%" y2="100%" id="linearGradient-1">
            <stop stop-color="#6EC6FF" offset="0%"></stop>
            <stop stop-color="#FFFFFF" stop-opacity="0" offset="100%"></stop>
        </linearGradient>
    </defs>
    <g id="Landing-Page" stroke="none" stroke-width="1" fill="none" fill-rule="evenodd" opacity="0.51412609">
        <g id="Sign-up-Page" transform="translate(12.000000, -547.000000)" fill="url(#linearGradient-1)">
            <g id="Group-Copy" transform="translate(-11.000000, -6.000000)">
                <g id="graph-copy" transform="translate(-1.000000, 553.000000)">
                    <path d="M19.602459,182.909465 C19.602459,182.909465 64.1387532,192.293877 102.304275,185.507102 C140.469796,178.720327 135.708366,174.984693 150.714504,159.807633 C165.720643,144.630573 196.052184,174.797374 228.653722,173.346994 C274.476156,171.308442 284.92839,156.769584 345.220951,108.065859 C405.513511,59.3621342 427.687712,80.8663929 471.825223,113.18786 C515.962734,145.509327 509.776629,123.64641 559.700433,125.513544 C609.624238,127.380678 642.55822,222.214225 720.19648,225.579287 C797.83474,228.944348 801.58243,1.35965827 852.125724,0.0146886082 C902.669018,-1.33028105 892.032255,90.1329303 928.432741,91.8523817 C964.833227,93.5718331 948.493648,215.758371 1026.76897,220.289073 C1105.0443,224.819774 1110.21549,83.2023807 1169.15045,80.6179292 C1228.08541,78.0334777 1251.4239,267.763865 1321.90508,192.593246 C1392.38626,117.422628 1403.16824,202.542549 1413.40935,203.542882 C1423.65046,204.543215 1438,203.933187 1438,203.933187 L1438,243 L0,243 L2.69051073e-15,190.25133 L14.6004127,184.984938 L19.602459,182.909465 Z" id="Path-2"></path>
                </g>
            </g>
        </g>
    </g>
</svg>