<?xml version="1.0" encoding="UTF-8"?>
<svg width="83px" height="72px" viewBox="0 0 83 72" version="1.1" xmlns="http://www.w3.org/2000/svg" xmlns:xlink="http://www.w3.org/1999/xlink">
    <title>Icons / Link</title>
    <g id="Icons-/-Link" stroke="none" stroke-width="1" fill="none" fill-rule="evenodd" fill-opacity="0.51">
        <path d="M39.5567228,8.83445111 L61.44324,7.44569313 C65.3014739,7.20087787 68.6276525,10.1301325 68.8724678,13.9883665 C68.8732709,14.0010233 68.8740396,14.0136823 68.8747739,14.0263433 L70.7323142,46.0543605 C70.9881327,50.4652263 67.6198014,54.2483215 63.2089356,54.5041401 C63.0500061,54.5133575 62.8908369,54.517829 62.7316405,54.5175486 L45.000423,54.4863093 L45.000423,54.4863093 L45.2453179,43.7722356 L60.2412872,43.8316597 L60.1129794,16.9562493 L42.348107,17.0944858 L42.2449024,26.3939475 L33,26.8131782 L33,15.8204017 C33,12.1265199 35.8702548,9.06836735 39.5567228,8.83445111 Z" id="Rectangle" fill="#3C6DF2" transform="translate(52.112012, 30.766255) rotate(50.000000) translate(-52.112012, -30.766255) "></path>
        <path d="M18.5567228,19.8344511 L40.44324,18.4456931 C44.3014739,18.2008779 47.6276525,21.1301325 47.8724678,24.9883665 C47.8732709,25.0010233 47.8740396,25.0136823 47.8747739,25.0263433 L49.7323142,57.0543605 C49.9881327,61.4652263 46.6198014,65.2483215 42.2089356,65.5041401 C42.0500061,65.5133575 41.8908369,65.517829 41.7316405,65.5175486 L24.000423,65.4863093 L24.000423,65.4863093 L24.2453179,54.7722356 L39.2412872,54.8316597 L39.1129794,27.9562493 L21.348107,28.0944858 L21.2449024,37.3939475 L12,37.8131782 L12,26.8204017 C12,23.1265199 14.8702548,20.0683674 18.5567228,19.8344511 Z" id="Rectangle-Copy" fill="#3C6DF2" transform="translate(31.112012, 41.766255) rotate(-128.000000) translate(-31.112012, -41.766255) "></path>
    </g>
</svg>