<?xml version="1.0" encoding="UTF-8"?>
<svg width="49px" height="50px" viewBox="0 0 49 50" version="1.1" xmlns="http://www.w3.org/2000/svg" xmlns:xlink="http://www.w3.org/1999/xlink">
    <title>Logo / Dark Small</title>
    <defs>
        <circle id="path-1" cx="24.5" cy="24" r="24"></circle>
        <circle id="path-3" cx="24.5" cy="25" r="24"></circle>
    </defs>
    <g id="Logo-/-Dark-Small" stroke="none" stroke-width="1" fill="none" fill-rule="evenodd">
        <mask id="mask-2" fill="white">
            <use xlink:href="#path-1"></use>
        </mask>
        <circle stroke="#121212" stroke-width="3" cx="24.5" cy="24" r="22.5"></circle>
        <ellipse id="Oval" fill="#FAFAFA" mask="url(#mask-2)" transform="translate(-2.697034, 41.195575) rotate(-19.000000) translate(2.697034, -41.195575) " cx="-2.6970338" cy="41.1955754" rx="3.80208549" ry="3.80323443"></ellipse>
        <ellipse id="Oval-Copy-5" fill="#FAFAFA" mask="url(#mask-2)" transform="translate(9.286947, 24.364811) rotate(-19.000000) translate(-9.286947, -24.364811) " cx="9.28694691" cy="24.3648106" rx="3.80208549" ry="3.80323443"></ellipse>
        <ellipse id="Oval-Copy-7" fill="#FAFAFA" mask="url(#mask-2)" transform="translate(34.118547, 14.117624) rotate(-19.000000) translate(-34.118547, -14.117624) " cx="34.1185473" cy="14.1176236" rx="3.80208549" ry="3.80323443"></ellipse>
        <ellipse id="Oval-Copy-8" fill="#FAFAFA" mask="url(#mask-2)" transform="translate(50.197034, 1.804425) rotate(-19.000000) translate(-50.197034, -1.804425) " cx="50.1970338" cy="1.80442463" rx="3.80208549" ry="3.80323443"></ellipse>
        <ellipse id="Oval-Copy-6" fill="#FAFAFA" mask="url(#mask-2)" transform="translate(23.803420, 33.337515) rotate(-19.000000) translate(-23.803420, -33.337515) " cx="23.8034199" cy="33.3375147" rx="3.80208549" ry="3.80323443"></ellipse>
        <mask id="mask-4" fill="white">
            <use xlink:href="#path-3"></use>
        </mask>
        <circle stroke="#FFFFFF" stroke-width="3" cx="24.5" cy="25" r="22.5"></circle>
        <polyline id="Path-7" stroke="#FFFFFF" stroke-width="3" mask="url(#mask-4)" points="5.39126526 36.3617086 9.28694691 25.0709209 23.8034199 33.3375147 34.1185473 14.1176236 40.7553892 8.28375688"></polyline>
    </g>
</svg>