<?xml version="1.0" encoding="UTF-8"?>
<svg width="25px" height="25px" viewBox="0 0 25 25" version="1.1" xmlns="http://www.w3.org/2000/svg" xmlns:xlink="http://www.w3.org/1999/xlink">
    <title>Group</title>
    <defs>
        <path d="M42.6205449,8.85695472 C45.9837073,12.9874242 48,18.2582469 48,24 C48,37.254834 37.254834,48 24,48 C15.3107664,48 7.70005882,43.3822811 3.48800241,36.4669685 L10.2302107,26.8347634 C11.0809984,27.2169502 12.0733356,27.2887041 13.0247346,26.9609855 C13.672679,26.7377948 14.2215579,26.3569039 14.6432562,25.8759797 L14.6432562,25.8759797 L22.7039664,31.1123145 C22.4409573,31.8838133 22.4228054,32.7453827 22.7086235,33.5757771 C23.3922348,35.5618896 25.5558563,36.6175631 27.5412075,35.9336897 C29.5265587,35.2498163 30.5818274,33.085365 29.8982162,31.0992524 C29.6682673,30.4311763 29.2708593,29.8683768 28.7691059,29.4416485 L28.7691059,29.4416485 L35.271028,16.6742092 C36.0729273,16.97876 36.9819217,17.0149987 37.8563349,16.7137986 C39.8416861,16.0299252 40.8969549,13.8654739 40.2133436,11.8793613 C40.1038905,11.5613645 39.956497,11.2672198 39.7779694,11.0002481 L39.7779694,11.0002481 Z M24,0 C30.9735154,0 37.2523726,2.97418567 41.6372868,7.72327233 L38.7028921,9.93653787 C37.753344,9.31484324 36.5368285,9.12322963 35.3807597,9.52144872 C33.3954085,10.2053221 32.3401397,12.3697734 33.023751,14.355886 C33.2285646,14.9509362 33.5662291,15.462467 33.9921473,15.8687185 L33.9921473,15.8687185 L27.4515005,28.7114319 C26.7001314,28.4727035 25.8683119,28.4648491 25.0656322,28.7413398 C24.4247547,28.9620963 23.8807934,29.3371317 23.4609538,29.8106456 L23.4609538,29.8106456 L15.3934431,24.5691555 C15.6497116,23.8030041 15.6649886,22.949468 15.3817432,22.1265482 C14.698132,20.1404357 12.5345105,19.0847622 10.5491593,19.7686356 C8.56380807,20.452509 7.50853934,22.6169603 8.19215058,24.6030729 C8.37146372,25.1240358 8.65260566,25.5809819 9.00564914,25.9593091 L9.00564914,25.9593091 L2.67007779,35.0124682 C0.963766532,31.7142264 0,27.9696631 0,24 C0,10.745166 10.745166,0 24,0 Z" id="path-1"></path>
    </defs>
    <g id="Symbols" stroke="none" stroke-width="1" fill="none" fill-rule="evenodd">
        <g id="Group">
            <mask id="mask-2" fill="white">
                <use xlink:href="#path-1"></use>
            </mask>
            <path stroke="#000000" stroke-width="3" d="M42.393056,11.0372246 C44.9803555,14.7014868 46.5,19.1733134 46.5,24 C46.5,30.2132034 43.9816017,35.8382034 39.9099026,39.9099026 C35.8382034,43.9816017 30.2132034,46.5 24,46.5 C16.2010928,46.5 9.32923233,42.5319617 5.29217857,36.5052236 L5.29217857,36.5052236 L10.8372188,28.5833436 C11.7034869,28.7419076 12.6212656,28.6864598 13.5132542,28.3792057 C13.8941323,28.2480086 14.2503939,28.0776457 14.5791778,27.874247 L14.5791778,27.874247 L21.0237474,31.8396682 C20.9544923,32.5695396 21.0361392,33.325577 21.2902881,34.0639619 C21.7669171,35.4487242 22.7595407,36.5090704 23.9790026,37.1040698 C25.1986731,37.699171 26.6452794,37.8287963 28.0297272,37.3519099 C29.41399,36.8750872 30.4740628,35.882153 31.0688632,34.6621638 C31.6635619,33.4423831 31.7931171,31.9956449 31.3165517,30.6110676 C31.1664326,30.1749227 30.9650108,29.7710491 30.7214733,29.4037428 L30.7214733,29.4037428 L36.0989601,18.3966741 C36.8355062,18.4696946 37.599185,18.3888719 38.3448546,18.1320188 C39.7291174,17.6551961 40.7891902,16.6622619 41.3839906,15.4422727 C41.9786893,14.222492 42.1082446,12.7757538 41.6316791,11.3911765 L41.707,11.63 Z M24,1.5 C29.9391632,1.5 35.3408068,3.80120436 39.362129,7.56047739 L39.362129,7.56047739 L38.5452505,8.17660756 C37.41539,7.73506522 36.1289669,7.67722599 34.89224,8.10322851 C33.5079772,8.58005122 32.4479044,9.57298542 31.853104,10.7929746 C31.2584053,12.0127553 31.12885,13.4594935 31.6054155,14.8440708 C31.7314677,15.2102935 31.8937125,15.5537538 32.0866813,15.8719214 L32.0866813,15.8719214 L26.6006798,27.041233 C25.9335001,27.0034765 25.2480198,27.0920191 24.5771126,27.3231196 C24.202952,27.4520028 23.852548,27.6186845 23.5286121,27.8173506 L23.5286121,27.8173506 L17.0687801,23.8392504 C17.1341029,23.1166302 17.0515119,22.3688584 16.8000787,21.6383634 C16.3234496,20.2536012 15.3308261,19.1932549 14.1113641,18.5982555 C12.8916937,18.0031543 11.4450874,17.873529 10.0606396,18.3504154 C8.67637678,18.8272381 7.616304,19.8201723 7.02150363,21.0401615 C6.4268049,22.2599422 6.29724963,23.7066804 6.77381509,25.0912578 C6.85568125,25.3291055 6.95282417,25.5573481 7.06373444,25.7752966 L7.06373444,25.7752966 L2.93531981,31.9258493 C2.00739056,29.4607056 1.5,26.7895896 1.5,24 C1.5,17.7867966 4.01839828,12.1617966 8.09009742,8.09009742 C12.1617966,4.01839828 17.7867966,1.5 24,1.5 Z"></path>
        </g>
    </g>
</svg>