<?xml version="1.0" encoding="UTF-8"?>
<svg width="36px" height="36px" viewBox="0 0 36 36" version="1.1" xmlns="http://www.w3.org/2000/svg" xmlns:xlink="http://www.w3.org/1999/xlink">
    <title>logo_black_small.svg</title>
    <defs>
        <circle id="path-1" cx="18.2476259" cy="17.1921624" r="17.0672597"></circle>
        <circle id="path-3" cx="18.2476259" cy="17.9032982" r="17.0672597"></circle>
    </defs>
    <g id="logo_black_small.svg" stroke="none" stroke-width="1" fill="none" fill-rule="evenodd">
        <mask id="mask-2" fill="white">
            <use xlink:href="#path-1"></use>
        </mask>
        <circle stroke="#121212" stroke-width="3" cx="18.2476259" cy="17.1921624" r="15.5672597"></circle>
        <ellipse id="Oval-Copy-5" fill="#121212" mask="url(#mask-2)" transform="translate(9.429079, 17.451592) rotate(-19.000000) translate(-9.429079, -17.451592) " cx="9.42907895" cy="17.4515922" rx="2.70379918" ry="2.70461624"></ellipse>
        <ellipse id="Oval-Copy-7" fill="#121212" mask="url(#mask-2)" transform="translate(23.087719, 14.164451) rotate(-19.000000) translate(-23.087719, -14.164451) " cx="23.0877195" cy="14.1644505" rx="2.70379918" ry="2.70461624"></ellipse>
        <ellipse id="Oval-Copy-8" fill="#121212" mask="url(#mask-2)" transform="translate(36.521707, 3.408094) rotate(-19.000000) translate(-36.521707, -3.408094) " cx="36.5217071" cy="3.40809367" rx="2.70379918" ry="2.70461624"></ellipse>
        <ellipse id="Oval-Copy-6" fill="#121212" mask="url(#mask-2)" transform="translate(17.752263, 23.832404) rotate(-19.000000) translate(-17.752263, -23.832404) " cx="17.7522629" cy="23.8324036" rx="2.70379918" ry="2.70461624"></ellipse>
        <mask id="mask-4" fill="white">
            <use xlink:href="#path-3"></use>
        </mask>
        <circle stroke="#121212" stroke-width="3" cx="18.2476259" cy="17.9032982" r="15.5672597"></circle>
        <polyline id="Path-7" stroke="#121212" stroke-width="2" mask="url(#mask-4)" points="4.65872018 25.9830162 9.77232734 18 17.7522629 23.8324036 23.1258892 13.5319095 31.1427483 8.63829139"></polyline>
    </g>
</svg>