<?xml version="1.0" encoding="UTF-8"?>
<svg width="182px" height="128px" viewBox="0 0 182 128" version="1.1" xmlns="http://www.w3.org/2000/svg" xmlns:xlink="http://www.w3.org/1999/xlink">
    <title>Group 5</title>
    <g id="Portfolios---Holdings-Tab---Desktop" stroke="none" stroke-width="1" fill="none" fill-rule="evenodd">
        <g id="No-positions" transform="translate(-1137.000000, -456.000000)">
            <g id="Group-3" transform="translate(230.000000, 328.000000)">
                <g id="Group-Copy-3" transform="translate(804.000000, 105.000000)">
                    <g id="Group-5" transform="translate(103.000000, 23.544987)">
                        <path d="M79.9797297,127.455013 C124.151315,127.455013 181.843904,107.788181 181.843904,71.0612455 C181.843904,51.6869687 178.711979,37.000053 152,23.8550133 C128.075295,12.0815988 88.5918469,0 67.75,0 C43,0 0,24.2280774 0,60.9550133 C0,97.6819491 35.8081447,127.455013 79.9797297,127.455013 Z" id="Oval" fill="#6EC6FF"></path>
                        <g id="Group" transform="translate(37.000000, 7.755013)" fill="#000000" fill-opacity="0.54" fill-rule="nonzero">
                            <g id="Icons/EditFilled-Copy-2">
                                <path d="M58.3333334,8.33333316 L24.9999999,8.33333316 C20.4166665,8.33333316 16.7083332,12.0833332 16.7083332,16.6666665 L16.6666665,83.3333332 C16.6666665,87.9166668 20.3749999,91.6666668 24.9583332,91.6666668 L75.0000001,91.6666668 C79.5833335,91.6666668 83.3333335,87.9166668 83.3333335,83.3333332 L83.3333335,33.3333332 L58.3333334,8.33333316 Z M74.9999999,83.3333335 L24.9999999,83.3333335 L24.9999999,16.6666665 L54.1666667,16.6666665 L54.1666667,37.4999999 L74.9999999,37.4999999 L74.9999999,83.3333335 Z M33.3333333,62.5416667 L39.2083333,68.4166667 L45.8333333,61.8333333 L45.8333333,79.1666668 L54.1666667,79.1666668 L54.1666667,61.8333333 L60.7916667,68.4583334 L66.6666667,62.5416667 L50.0416667,45.8333333 L33.3333333,62.5416667 Z" id="UploadFileFilled"></path>
                            </g>
                        </g>
                    </g>
                </g>
            </g>
        </g>
    </g>
</svg>